<?xml version="1.0" encoding="utf-8"?>
<!-- Generator: Adobe Illustrator 24.0.2, SVG Export Plug-In . SVG Version: 6.00 Build 0)  -->
<svg version="1.1" id="Capa_1" xmlns="http://www.w3.org/2000/svg" xmlns:xlink="http://www.w3.org/1999/xlink" x="0px" y="0px"
	 viewBox="0 0 862.2 198.9" style="enable-background:new 0 0 862.2 198.9;" xml:space="preserve">
<style type="text/css">
	.st0{fill:#E9009B;}
</style>
<path class="st0" d="M90,96.5c0.1,13.8-4.6,25.4-14.2,35c-9.6,9.5-21.3,14.4-35,14.5L0,146.1V0h28.6C39,0,47.9,3.6,55.1,10.8
	s10.9,16,11,26.5c0,5.4-1,10.5-3.1,15.3c8.2,4.3,14.8,10.4,19.6,18.2C87.4,78.6,89.9,87.1,90,96.5z"/>
<path class="st0" d="M221.5,145.9H195l-5.2-14.4c-9.8,11.6-22.4,17.3-37.6,17.3c-13.8,0-25.4-4.8-35-14.4
	c-9.5-9.6-14.3-21.2-14.3-34.9c0-10.5,3-19.9,8.9-28.3s13.8-14.4,23.6-18c5.8-2.1,11.4-3.1,17-3.1c10.5,0,19.9,3,28.3,8.9
	c8.4,6,14.4,13.9,18,23.7L221.5,145.9z"/>
<path class="st0" d="M318,134.8c-9.6,9.2-21,13.8-34.1,13.8c-13.9,0-25.6-4.8-35.1-14.3s-14.3-21.2-14.3-35.1
	c0-13.7,4.8-25.4,14.4-34.9s21.3-14.3,35-14.3c12.5,0,23.5,4.2,32.8,12.7l-14.9,20C297,77.5,291,75,283.9,75
	c-6.8,0-12.5,2.4-17.3,7.1s-7.2,10.4-7.2,17.2s2.4,12.5,7.2,17.3c4.8,4.8,10.6,7.2,17.3,7.2c7.4,0,13.5-2.8,18.3-8.5L318,134.8z"/>
<path class="st0" d="M420.4,145.9h-24.9v-12.4c-0.1-6.9-2.5-12.7-7.1-17.3c-4.6-4.7-10.4-7-17.3-7h-15.8v36.7h-24.9V0h24.9v84.3H371
	c6.9,0,12.7-2.4,17.3-7.1c4.6-4.7,7-10.5,7.1-17.4v-9.6h24.9v9.6c0,14.8-5.5,27.1-16.6,36.9c11.1,9.8,16.6,22.1,16.6,36.9v12.3
	H420.4z"/>
<path class="st0" d="M531.8,99.4c0,13.8-4.8,25.4-14.3,35c-9.5,9.5-21.2,14.3-35,14.3c-8.9,0-17-2.2-24.5-6.5v56.6h-24.9V99.4
	c0-13.9,4.8-25.6,14.3-35c9.5-9.5,21.2-14.2,35.1-14.2c13.8,0,25.4,4.8,35,14.3C527,74,531.8,85.7,531.8,99.4z"/>
<path class="st0" d="M663.3,145.9h-26.5l-5.2-14.4c-9.8,11.6-22.4,17.3-37.6,17.3c-13.8,0-25.4-4.8-35-14.4
	c-9.5-9.6-14.3-21.2-14.3-34.9c0-10.5,3-19.9,8.9-28.3s13.8-14.4,23.6-18c5.8-2.1,11.4-3.1,17-3.1c10.5,0,19.9,3,28.3,8.9
	c8.4,6,14.4,13.9,18,23.7L663.3,145.9z"/>
<path class="st0" d="M759.8,134.8c-9.6,9.2-21,13.8-34.1,13.8c-13.9,0-25.6-4.8-35.1-14.3s-14.3-21.2-14.3-35.1
	c0-13.7,4.8-25.4,14.4-34.9c9.6-9.5,21.3-14.3,35-14.3c12.5,0,23.5,4.2,32.8,12.7l-14.9,20c-4.8-5.2-10.8-7.7-17.9-7.7
	c-6.8,0-12.5,2.4-17.3,7.1s-7.2,10.4-7.2,17.2s2.4,12.5,7.2,17.3s10.6,7.2,17.3,7.2c7.4,0,13.5-2.8,18.3-8.5L759.8,134.8z"/>
<path class="st0" d="M862.2,145.9h-24.9v-12.4c-0.1-6.9-2.5-12.7-7.1-17.3c-4.6-4.7-10.4-7-17.3-7h-15.8v36.7h-24.9V0h24.9v84.3
	h15.8c6.9,0,12.7-2.4,17.3-7.1s7-10.5,7.1-17.4v-9.6h24.9v9.6c0,14.8-5.5,27.1-16.6,36.9c11.1,9.8,16.6,22.1,16.6,36.9V145.9z"/>
</svg>
