<?xml version="1.0" encoding="UTF-8"?>
<svg viewBox="0 0 640 480" xmlns="http://www.w3.org/2000/svg">
 <defs>
  <linearGradient id="e" x1=".63133" x2=".74543" y1="1.1009" y2="1.1009" gradientTransform="matrix(2.5278 2.5256 -2.5278 2.5256 565.91 -1456.1)">
   <stop stop-color="#fff" offset="0"/>
   <stop stop-color="#ffdd7c" offset="1"/>
  </linearGradient>
  <linearGradient id="f" x1="-1.7075" x2="-1.441" y1="2.0819" y2="2.0819" gradientTransform="matrix(2.3454 2.3434 -2.3454 2.3434 888.99 -800.77)">
   <stop stop-color="#ff9191" offset="0"/>
   <stop stop-color="#b55858" offset="1"/>
  </linearGradient>
  <linearGradient id="d" x1=".55866" x2=".6314" y1="1.3314" y2="1.3314" gradientTransform="matrix(2.5278 2.5256 -2.5278 2.5256 565.91 -1456.1)">
   <stop stop-color="#fff" stop-opacity=".827" offset="0"/>
   <stop stop-color="#fff" stop-opacity="0" offset="1"/>
  </linearGradient>
 </defs>
 <g transform="rotate(225 241.59 79.103)">
  <g stroke-linecap="round" stroke-linejoin="round" stroke-width="5.164">
   <path d="m398.52-75.198c-23.15-22.742-48.423-34.829-56.372-27.019-0.53949 0.53001-1.0109 1.1286-1.3664 1.809l-50.373 49.487 7.6035 7.4698 29.582 29.062 9.5044 9.3372 37.185 36.531 52.036-51.121c-0.028809-0.091919-0.029846-0.19907-0.059326-0.29167l-0.0594-0.0584c0.0177-0.018806 0.041626-0.039261 0.059265-0.05825 7.4932-8.0536-4.8108-32.621-27.741-55.147z" fill="url(#f)"/>
   <path d="m304.02-64.285l-47.106 46.277-5.4055 5.3104 7.6035 7.4698 76.272 74.93 52.511-51.588-41.938-41.2-34.334-33.73-7.6035-7.4697z" fill="#e3dedb"/>
   <path d="m370.84 34.863l-83.875-82.4-3.8017 3.7347-1.9009 1.8675 83.875 82.4 1.9009-1.8675 3.8016-3.7348z"/>
   <path d="m380.35 25.526l-83.875-82.4-3.8018 3.7349-1.9009 1.8675 83.875 82.4 1.9009-1.8675 3.8018-3.7349z"/>
   <path d="m361.34 44.2l-83.875-82.4-3.8017 3.7348-1.9008 1.8675 83.875 82.4 1.9009-1.8674 3.8017-3.7348z"/>
   <path d="m263.8-24.778l-180.28 177.11-34.097 115.9 10.692-3.0345 107.28-30.462 180.28-177.11-16.276-15.99-5.7025-5.6023-15.207-14.939-1.9009-1.8675-5.7025-5.6022-1.9009-1.8675-15.207-14.939-5.7027-5.6024-8.6726-8.52-7.6035-7.4697z" fill="url(#e)"/>
   <path d="m95.778 255.07l-16.48-16.19-16.48-16.19-13.399 45.543 46.358-13.163z"/>
   <path d="m426.26-19.934c0.02948 0.092598 0.030518 0.19975 0.059326 0.29167l0.1188-0.1167-0.1782-0.175z" fill="#ff9191"/>
   <path d="m263.8-24.778l-180.28 177.11 40.687 1.229 1.251 39.971 40.687 1.2289 1.251 39.971 180.28-177.11-20.969-20.6-20.969-20.6-20.969-20.6-20.969-20.6z" fill="#ffc700"/>
   <path d="m263.8-24.778l-180.28 177.11 40.687 1.229 160.57-157.74-20.969-20.6z" fill="#ffda00"/>
   <path d="m166.14 194.76l1.251 39.971 180.28-177.11-20.969-20.6-160.57 157.74z" fill="#ff8a00"/>
   <path d="m125.45 193.54l40.687 1.2289 160.57-157.74-20.969-20.6-180.28 177.11z" fill="#ffa100"/>
  </g>
  <path d="m324.15-43.049c-1.5185-1.4917-3.2873-2.6592-5.1606-3.405-1.8733-0.7459-3.8622-1.0594-5.8537-1.0594-1.9917 0-3.9804 0.31348-5.8538 1.0594-1.8734 0.74587-3.6421 1.9133-5.1606 3.4051l-28.498 27.997-169.22 166.24c-0.52564 0.51639-0.72501 1.1829-1.1553 1.7404l20.95 0.6053 1.2324 39.953 24.031 0.7567 168.6-165.64 28.498-27.997c1.5184-1.4918 2.7068-3.2294 3.466-5.0698 0.75912-1.8404 1.0783-3.7942 1.0783-5.7508-6.1e-5 -1.9566-0.31903-3.9104-1.0783-5.7508-0.75934-1.8403-1.9476-3.578-3.466-5.0697l-22.414-22.019z" fill="url(#d)" stroke-dashoffset="50" stroke-width="5"/>
  <path d="m79.298 238.88l-10.964-10.766-18.914 40.119 29.878-29.353z" fill="#fff" opacity=".8" stroke-linecap="round" stroke-linejoin="round" stroke-width="5.164"/>
 </g>
</svg>
