<?xml version="1.0" encoding="UTF-8"?>
<svg version="1.1" viewBox="0 0 744.09 1052.4" xmlns="http://www.w3.org/2000/svg">
 <path d="m250.69 121.19-24.953 43.221h49.986l-24.953-43.221h-0.0812z" fill="#00f" opacity=".333"/>
 <path d="m125.68 337.7-24.953 43.221h300l-24.953-43.221h-250.09z" fill="#f00" opacity=".333"/>
 <path d="m150.69 294.4-24.953 43.221h249.99l-24.953-43.221h-200.08z" fill="#f95" opacity=".333"/>
 <path d="m175.68 251.1-24.953 43.221h200l-24.953-43.221h-150.09z" fill="#ffe680" opacity=".333"/>
 <path d="m200.69 207.79-24.966 43.221h150.01l-24.966-43.221h-100.08z" fill="#ff0" opacity=".333"/>
 <path d="m225.68 164.49-24.953 43.221h100l-24.953-43.221h-50.095z" fill="#0ff" opacity=".333"/>
 <path d="m100.8 380.95 49.906-6.6e-4 -24.993-43.29-24.954 43.22 0.0406 0.0703z" fill="#00f" opacity=".333"/>
 <path d="m350.8 380.96 49.906-6.7e-4 -150-259.81-24.954 43.22 125.05 216.59z" fill="#f00" opacity=".333"/>
 <path d="m300.8 380.95 49.906-6.6e-4 -124.99-216.49-24.954 43.22 100.04 173.28z" fill="#f95" opacity=".333"/>
 <path d="m250.8 380.96 49.906-6.7e-4 -100-173.21-24.954 43.22 75.047 129.99z" fill="#ffe680" opacity=".333"/>
 <path d="m200.8 380.95 49.913 0.0111-75.007-129.92-24.947 43.232 50.041 86.673z" fill="#ff0" opacity=".333"/>
 <path d="m150.8 380.96 49.906-6.6e-4 -50-86.603-24.954 43.22 25.047 43.383z" fill="#0ff" opacity=".333"/>
</svg>
